<svg width="450" height="477" viewBox="0 0 450 477" fill="none" xmlns="http://www.w3.org/2000/svg">
<path d="M450 96.9202H0V0H450V96.9202Z" fill="white"/>
<path d="M57.8431 72.1956C71.3795 72.1956 82.353 61.3475 82.353 47.9656C82.353 34.5837 71.3795 23.7356 57.8431 23.7356C44.3068 23.7356 33.3333 34.5837 33.3333 47.9656C33.3333 61.3475 44.3068 72.1956 57.8431 72.1956Z" fill="#00BA63"/>
<path d="M114.836 30.6584C113.761 30.6584 112.731 31.1794 111.971 32.1068C111.211 33.0341 110.784 34.2918 110.784 35.6033C110.784 36.9148 111.211 38.1725 111.971 39.0999C112.731 40.0272 113.761 40.5482 114.836 40.5482H410.664C411.737 40.5451 412.765 40.0228 413.523 39.0957C414.28 38.1687 414.706 36.9127 414.706 35.6033C414.706 34.2939 414.28 33.0379 413.523 32.1109C412.765 31.1839 411.737 30.6615 410.664 30.6584H114.836Z" fill="#919191"/>
<path d="M114.844 55.3829C113.77 55.3802 112.738 55.8985 111.977 56.8239C111.216 57.7493 110.787 59.006 110.784 60.3174C110.782 61.6289 111.207 62.8878 111.965 63.8171C112.723 64.7464 113.753 65.27 114.827 65.2728H301.824C302.357 65.2739 302.885 65.1468 303.377 64.8988C303.869 64.6508 304.316 64.2867 304.693 63.8274C305.07 63.3681 305.369 62.8226 305.573 62.2221C305.777 61.6216 305.882 60.978 305.882 60.3279C305.882 59.6778 305.777 59.0341 305.573 58.4336C305.369 57.8331 305.07 57.2876 304.693 56.8283C304.316 56.3691 303.869 56.005 303.377 55.757C302.885 55.5089 302.357 55.3819 301.824 55.3829H114.844Z" fill="#909090"/>
<path d="M450 96.9202H0V0H450V96.9202ZM6.87023 89.9973H443.13V6.92287H6.87023V89.9973Z" fill="#CCCCCC"/>
<path d="M450 219.554H0V121.645H450V219.554Z" fill="white"/>
<path d="M57.8431 195.818C71.3795 195.818 82.353 184.527 82.353 170.599C82.353 156.671 71.3795 145.38 57.8431 145.38C44.3068 145.38 33.3333 156.671 33.3333 170.599C33.3333 184.527 44.3068 195.818 57.8431 195.818Z" fill="#E6E6E6"/>
<path d="M114.836 154.281C113.761 154.281 112.731 154.698 111.971 155.44C111.211 156.182 110.784 157.188 110.784 158.237C110.784 159.286 111.211 160.292 111.971 161.034C112.731 161.776 113.761 162.193 114.836 162.193H410.664C411.737 162.19 412.765 161.773 413.523 161.031C414.28 160.289 414.706 159.285 414.706 158.237C414.706 157.189 414.28 156.185 413.523 155.443C412.765 154.701 411.737 154.284 410.664 154.281H114.836Z" fill="#E6E6E6"/>
<path d="M114.844 179.006C113.77 179.003 112.738 179.418 111.977 180.158C111.216 180.899 110.787 181.904 110.784 182.953C110.782 184.002 111.207 185.009 111.965 185.753C112.723 186.496 113.753 186.915 114.827 186.917H301.824C302.357 186.918 302.885 186.817 303.377 186.618C303.869 186.42 304.316 186.129 304.693 185.761C305.07 185.394 305.369 184.957 305.573 184.477C305.777 183.997 305.882 183.482 305.882 182.962C305.882 182.441 305.777 181.927 305.573 181.446C305.369 180.966 305.07 180.529 304.693 180.162C304.316 179.795 303.869 179.503 303.377 179.305C302.885 179.106 302.357 179.005 301.824 179.006H114.844Z" fill="#E6E6E6"/>
<path d="M450 219.554H0V121.645H450V219.554ZM6.87023 212.56H443.13V128.638H6.87023V212.56Z" fill="#E6E6E6"/>
<path d="M450 341.199H0V244.278H450V341.199Z" fill="white"/>
<path d="M57.8431 317.463C71.3795 317.463 82.353 306.615 82.353 293.233C82.353 279.851 71.3795 269.003 57.8431 269.003C44.3068 269.003 33.3333 279.851 33.3333 293.233C33.3333 306.615 44.3068 317.463 57.8431 317.463Z" fill="#E6E6E6"/>
<path d="M114.836 275.926C113.761 275.926 112.731 276.447 111.971 277.374C111.211 278.301 110.784 279.559 110.784 280.871C110.784 282.182 111.211 283.44 111.971 284.367C112.731 285.295 113.761 285.816 114.836 285.816H410.664C411.737 285.813 412.765 285.29 413.523 284.363C414.28 283.436 414.706 282.18 414.706 280.871C414.706 279.561 414.28 278.305 413.523 277.378C412.765 276.451 411.737 275.929 410.664 275.926H114.836Z" fill="#E6E6E6"/>
<path d="M117.785 301.639C116.711 301.637 115.679 302.052 114.918 302.792C114.157 303.532 113.728 304.538 113.726 305.587C113.723 306.636 114.148 307.643 114.906 308.387C115.664 309.13 116.694 309.549 117.768 309.551H304.766C305.298 309.552 305.826 309.45 306.318 309.252C306.81 309.054 307.258 308.762 307.635 308.395C308.011 308.027 308.31 307.591 308.514 307.111C308.719 306.63 308.824 306.115 308.824 305.595C308.824 305.075 308.719 304.56 308.514 304.08C308.31 303.6 308.011 303.163 307.635 302.796C307.258 302.428 306.81 302.137 306.318 301.939C305.826 301.74 305.298 301.639 304.766 301.639H117.785Z" fill="#E6E6E6"/>
<path d="M450 341.199H0V244.278H450V341.199ZM6.87023 334.276H443.13V251.201H6.87023V334.276Z" fill="#E6E6E6"/>
<path d="M353.465 305.813C354.204 304.814 354.726 303.656 354.993 302.421C355.261 301.187 355.269 299.906 355.015 298.668C354.761 297.43 354.253 296.266 353.525 295.257C352.798 294.248 351.869 293.42 350.804 292.829L352.523 273.118L341.395 269.098L339.339 296.969C338.516 298.917 338.4 301.116 339.014 303.147C339.628 305.179 340.928 306.903 342.669 307.994C344.411 309.084 346.471 309.464 348.461 309.062C350.45 308.66 352.231 307.504 353.465 305.813Z" fill="#FFB8B8"/>
<path d="M341.625 192.715C341.625 192.715 334.15 175.903 327.509 181.816C320.868 187.73 336.614 237.441 336.614 237.441L339.009 285.699L351.631 284.346L355.2 237.33L341.625 192.715Z" fill="#00BA63"/>
<path d="M439.35 442.172L430.2 450.331L397.275 415.335L410.78 403.293L439.35 442.172Z" fill="#FFB8B8"/>
<path d="M439.936 436.496L421.887 452.306L421.887 452.307C418.836 454.979 416.892 458.853 416.481 463.077C416.07 467.3 417.227 471.528 419.696 474.829L419.999 475.233L449.55 449.348L439.936 436.496Z" fill="#2F2E41"/>
<path d="M311.848 464.165H299.754L294 414.361L311.85 414.362L311.848 464.165Z" fill="#FFB8B8"/>
<path d="M315.675 460.016L292.314 460.015H292.313C288.364 460.015 284.578 461.709 281.786 464.724C278.994 467.739 277.425 471.828 277.425 476.092V476.615L315.674 476.616L315.675 460.016Z" fill="#2F2E41"/>
<path d="M291.674 230.361C291.674 230.361 269.457 259.959 274.287 289.556C279.117 319.154 282.981 341.352 282.981 341.352L290.708 407.947C290.708 407.947 287.81 426.083 291.674 430.757C291.674 430.757 285.879 441.772 296.504 446.001C307.13 450.229 312.863 444.54 312.863 444.54C312.863 444.54 320.653 432.259 315.823 429.088L313.789 298.397L391.168 409.004C391.168 409.004 392.591 422.458 402.505 422.602L414.352 432.259L427.875 423.802L421.113 414.289C421.113 414.289 424.977 403.718 416.283 401.604L366.053 329.724L353.496 292.727C353.496 292.727 346.734 264.187 328.381 252.559V240.187L291.674 230.361Z" fill="#2F2E41"/>
<path d="M329.608 179.343C326.657 175.592 322.526 173.139 318.003 172.452C313.479 171.765 308.878 172.892 305.077 175.618L304.267 176.198C295.616 186.736 289.802 199.613 287.45 213.442L283.8 234.906L329.608 245.579L340.347 205.742C341.71 200.685 341.382 195.275 339.42 190.452C337.458 185.629 333.986 181.698 329.608 179.343V179.343Z" fill="#00BA63"/>
<path d="M255.129 310.095C256.402 309.651 257.568 308.914 258.545 307.937C259.523 306.959 260.287 305.765 260.786 304.438C261.284 303.111 261.503 301.683 261.429 300.256C261.354 298.829 260.988 297.436 260.354 296.176L273.6 278.872L265.712 267.714L247.328 292.432C245.416 293.708 244.009 295.688 243.374 297.998C242.738 300.307 242.918 302.785 243.879 304.962C244.841 307.139 246.517 308.864 248.59 309.81C250.664 310.756 252.99 310.858 255.129 310.095H255.129Z" fill="#FFB8B8"/>
<path d="M310.168 195.255C310.168 195.255 313.064 173.998 303.409 175.061C293.753 176.124 279.27 234.581 279.27 234.581L253.2 282.41L265.752 289.85L296.65 247.335L310.168 195.255Z" fill="#00BA63"/>
<path d="M292.497 163.955H338.853C339.807 163.954 340.721 163.547 341.395 162.825C342.07 162.102 342.449 161.123 342.45 160.101V138.69C342.45 131.081 339.629 123.784 334.608 118.403C329.586 113.023 322.776 110 315.675 110C308.574 110 301.763 113.023 296.742 118.403C291.721 123.784 288.9 131.081 288.9 138.69V160.101C288.901 161.123 289.28 162.102 289.955 162.825C290.629 163.547 291.543 163.954 292.497 163.955Z" fill="#2F2E41"/>
<path d="M309.937 163.955C299.023 163.955 290.175 154.354 290.175 142.511C290.175 130.668 299.023 121.068 309.937 121.068C320.852 121.068 329.7 130.668 329.7 142.511C329.7 154.354 320.852 163.955 309.937 163.955Z" fill="#FFB8B8"/>
<path d="M282.525 141.82H306.694L306.941 137.384L308.181 141.82H311.902L312.393 133.029L314.849 141.82H322.05V141.384C322.05 128.656 313.949 118.301 303.991 118.301H300.584C290.626 118.301 282.525 128.656 282.525 141.384V141.82Z" fill="#2F2E41"/>
<path d="M306.603 168.105C306.896 168.104 307.189 168.08 307.479 168.031L336.075 163.234V130.795C336.075 127.482 334.866 124.304 332.715 121.96C330.563 119.617 327.645 118.301 324.603 118.301H304.597L305.376 119.165C316.219 131.188 308.05 150.683 302.216 161.234C301.787 161.993 301.594 162.881 301.664 163.768C301.734 164.655 302.063 165.494 302.604 166.162C303.1 166.783 303.715 167.279 304.406 167.615C305.097 167.95 305.846 168.117 306.603 168.105Z" fill="#2F2E41"/>
</svg>
